<svg version="1.1" id="Layer_1" xmlns="http://www.w3.org/2000/svg" xmlns:xlink="http://www.w3.org/1999/xlink" x="0px" y="0px"
	 width="100%" viewBox="0 0 1024 1024" enable-background="new 0 0 1024 1024" xml:space="preserve">
<path fill="#000000" opacity="1.000000" stroke="none" 
	d="
M451.000000,198.007141 
	C514.666077,197.999542 577.832092,197.992340 640.998169,197.983124 
	C649.645691,197.981873 649.645691,197.977249 649.650757,189.299347 
	C649.666321,162.631836 669.463928,142.357925 695.175903,142.679016 
	C717.971863,142.963684 737.797729,162.657745 738.327576,185.543762 
	C738.584534,196.644287 738.593750,196.351654 749.913757,196.708450 
	C802.540222,198.367294 841.851501,221.631714 865.636963,269.202179 
	C873.693054,285.314148 877.363586,302.672577 877.360718,320.767853 
	C877.339478,455.433289 877.608215,590.099609 877.170288,724.763611 
	C877.057739,759.376892 862.262146,788.036621 836.367371,810.962891 
	C819.277039,826.094177 799.193115,834.663147 776.800171,838.033875 
	C771.883789,838.773987 766.844482,838.959717 761.861816,838.960266 
	C598.530212,838.978149 435.198486,838.842834 271.867065,839.000488 
	C240.377396,839.030945 212.518921,830.020447 189.156738,808.665527 
	C168.928955,790.175842 156.550720,767.364868 152.524460,740.076477 
	C151.689056,734.414490 151.665329,728.804688 151.664474,723.158691 
	C151.644089,587.993286 151.468872,452.827484 151.761612,317.662720 
	C151.846420,278.501526 168.939041,247.096161 199.328537,222.948380 
	C217.715164,208.338196 238.864075,200.064499 262.305511,197.487900 
	C269.599365,196.686172 276.900208,196.295898 284.190338,196.111893 
	C288.753906,195.996719 289.809784,194.329269 289.718109,190.154037 
	C289.353302,173.547775 295.362762,159.831345 309.344055,150.373108 
	C335.615112,132.600876 371.030701,147.607803 377.361267,178.944061 
	C378.297485,183.578354 378.606262,188.215179 378.258972,192.841553 
	C377.912262,197.459961 380.293793,198.032059 384.003601,198.019913 
	C406.168854,197.947296 428.334503,197.997726 451.000000,198.007141 
M190.005035,701.500000 
	C190.157150,712.327209 189.234924,723.297607 190.654953,733.955872 
	C195.702057,771.838318 229.231842,800.641296 267.411682,800.646423 
	C431.549896,800.668396 595.688110,800.666809 759.826355,800.605347 
	C764.625732,800.603577 769.502747,800.253113 774.211731,799.365540 
	C811.765198,792.287476 838.658081,759.688232 838.663574,721.346924 
	C838.679810,609.033081 838.662231,496.719208 838.654968,384.405334 
	C838.654541,377.358063 838.643066,377.363312 831.504578,377.363251 
	C620.041260,377.361572 408.577881,377.358917 197.114548,377.355530 
	C190.013901,377.355408 190.036026,377.351288 190.035599,384.555298 
	C190.029419,489.870209 190.016876,595.185120 190.005035,701.500000 
M739.499939,339.637115 
	C770.661499,339.635559 801.823364,339.562500 832.984131,339.714874 
	C837.323059,339.736115 838.889160,338.475739 838.736328,334.039795 
	C838.455811,325.900482 838.979126,317.721527 837.537109,309.648193 
	C829.094727,262.384399 788.759155,234.152069 744.268005,235.479004 
	C740.093445,235.603516 738.171692,236.983368 738.196777,241.757370 
	C738.249878,251.883728 739.196533,262.053345 737.333679,272.154358 
	C731.197449,305.425842 694.149841,320.128052 667.124878,299.814117 
	C655.045166,290.734131 650.580017,277.679443 649.725647,263.195801 
	C649.324036,256.386932 649.658386,249.535034 649.647095,242.702667 
	C649.636414,236.229507 649.629456,236.228012 642.936646,236.178284 
	C641.603577,236.168381 640.270325,236.174088 638.937195,236.173935 
	C555.615417,236.164627 472.293671,236.149078 388.971924,236.153061 
	C376.263519,236.153656 378.570251,235.154877 378.345490,246.764923 
	C378.130524,257.869507 379.155212,269.010468 375.344604,279.870209 
	C368.407501,299.639923 351.056091,309.558105 332.699036,309.145905 
	C312.712463,308.697144 296.218872,294.502289 291.587830,275.650360 
	C288.837250,264.453400 289.908386,253.150345 289.669373,241.874695 
	C289.532166,235.403442 289.625092,235.385742 282.971527,235.355133 
	C277.481873,235.329880 272.026459,235.418228 266.548889,236.242599 
	C234.528671,241.061722 211.214859,257.637878 197.188568,287.006134 
	C190.373001,301.276520 189.715515,316.483185 190.024689,331.889557 
	C190.180023,339.629578 190.032822,339.637360 197.574844,339.637390 
	C377.883179,339.637787 558.191528,339.637054 739.499939,339.637115 
M326.341644,196.555923 
	C326.343384,217.672333 326.342743,238.788742 326.352081,259.905151 
	C326.352753,261.400055 326.123322,262.982941 326.526184,264.372620 
	C327.551910,267.910889 329.342377,270.871307 333.705780,270.653290 
	C338.111786,270.433105 340.550507,267.838745 340.569672,263.640015 
	C340.684174,238.533783 340.665924,213.426651 340.585907,188.320129 
	C340.572235,184.026901 338.211151,181.413513 333.756500,181.437103 
	C329.458801,181.459854 326.954742,183.919296 326.443329,188.105377 
	C326.142944,190.564438 326.358154,193.086502 326.341644,196.555923 
M687.361206,189.073975 
	C687.358032,213.355087 687.337830,237.636200 687.364197,261.917297 
	C687.370422,267.645111 689.669006,270.582275 693.977539,270.658600 
	C698.300171,270.735229 700.628540,267.826447 700.636108,262.045776 
	C700.667725,237.931030 700.624146,213.816116 700.675476,189.701416 
	C700.684509,185.460739 699.836121,181.916260 694.861206,181.427353 
	C690.043823,180.953949 687.963562,183.835449 687.361206,189.073975 
z"/>
<path fill="#000000" opacity="1.000000" stroke="none" 
	d="
M631.277588,529.958191 
	C635.312317,545.144226 637.401672,560.155029 638.558167,575.460022 
	C640.533752,601.605408 638.209778,627.230957 631.438293,652.416321 
	C617.567688,704.004944 582.440857,732.564453 531.408569,743.380371 
	C520.327576,745.728943 509.050659,746.454407 497.701935,746.417358 
	C465.884125,746.313354 434.065796,746.386963 402.247650,746.373779 
	C394.153137,746.370422 392.670807,744.873901 392.670380,736.730957 
	C392.665375,640.443604 392.665863,544.156250 392.673401,447.868927 
	C392.674042,439.774261 394.175262,438.020020 402.150665,437.999176 
	C436.134186,437.910248 470.121704,437.646973 504.100677,438.047516 
	C536.981995,438.435120 567.063293,447.629944 592.729248,468.953339 
	C612.039612,484.996521 624.281677,505.609619 631.277588,529.958191 
M488.492065,496.381866 
	C481.827850,496.383148 475.158356,496.546631 468.501190,496.330688 
	C463.800018,496.178162 462.143066,497.908722 462.154236,502.755157 
	C462.292847,562.900085 462.303802,623.045654 462.147858,683.190552 
	C462.134979,688.150330 464.028534,689.514832 468.521881,689.659546 
	C477.195190,689.939087 485.817749,689.340759 494.429077,688.611389 
	C506.882141,687.556641 519.147278,685.419128 530.718506,680.457520 
	C542.519897,675.397278 551.887329,667.578430 558.482971,656.332214 
	C566.253418,643.083008 569.313354,628.647339 570.758118,613.614624 
	C573.154724,588.678589 571.627075,564.064026 563.494507,540.309692 
	C556.840820,520.875183 545.195618,505.459656 524.088806,499.910919 
	C512.790283,496.940704 501.168091,496.126038 488.492065,496.381866 
z"/>
</svg>