<svg version="1.1" id="Layer_1" xmlns="http://www.w3.org/2000/svg" xmlns:xlink="http://www.w3.org/1999/xlink" x="0px" y="0px"
	 width="100%" viewBox="0 0 1024 1024" enable-background="new 0 0 1024 1024" xml:space="preserve">
<path fill="#000000" opacity="1.000000" stroke="none" 
	d="
M148.664032,498.999939 
	C148.665192,442.341736 148.620255,386.183502 148.691284,330.025421 
	C148.718765,308.285675 152.764969,287.515625 163.211288,268.098816 
	C176.179123,243.995163 195.189178,226.644806 220.039566,215.577515 
	C235.381500,208.744858 251.487167,205.077103 268.322479,204.572723 
	C272.291901,204.453796 276.235199,203.331528 280.242950,203.695190 
	C284.349091,204.067780 285.916260,202.428375 285.701569,198.265137 
	C285.198700,188.512924 286.903656,179.152710 290.595917,170.025467 
	C299.102539,148.997482 324.659943,137.407501 346.009430,144.940903 
	C366.611847,152.210693 377.376190,166.798035 379.452576,188.322800 
	C379.802948,191.954910 380.631866,195.565979 380.273224,199.215393 
	C379.820923,203.817169 382.015930,205.402679 386.153839,204.595230 
	C394.915405,202.885498 403.750366,203.698273 412.546143,203.687622 
	C478.369446,203.607925 544.192871,203.663849 610.016235,203.618729 
	C619.639893,203.612122 629.211914,204.835785 638.903625,203.790161 
	C646.468994,202.973969 646.713074,203.587067 646.628113,196.126282 
	C646.492310,184.200165 648.683960,172.846252 655.293701,162.812317 
	C672.354553,136.913300 714.727905,133.121414 734.001770,166.195999 
	C739.699768,175.973892 741.543457,186.733276 741.237061,197.838593 
	C741.107910,202.519211 742.685303,203.660477 747.215332,203.758667 
	C772.962463,204.316788 797.790527,208.811356 820.109619,222.640076 
	C850.496094,241.467194 869.155273,268.337158 875.481445,303.667328 
	C876.893433,311.552887 877.427185,319.450653 877.424866,327.443512 
	C877.387573,458.256989 877.281921,589.070679 877.485596,719.883850 
	C877.528198,747.261597 871.585693,772.720581 855.940857,795.334290 
	C835.781189,824.473877 807.742188,840.896423 772.613770,845.450195 
	C766.128052,846.290894 759.668396,846.384521 753.176147,846.384644 
	C591.367310,846.388306 429.557770,846.648193 267.749969,846.240173 
	C213.195755,846.102600 167.875641,810.083862 153.497070,757.898804 
	C150.115250,745.624939 148.638199,733.173035 148.646088,720.465515 
	C148.691849,646.810303 148.665909,573.155151 148.664032,498.999939 
M404.499939,808.658752 
	C514.664368,808.658630 624.828857,808.687439 734.993225,808.610168 
	C745.123047,808.603027 755.235413,808.711182 765.401428,807.876526 
	C783.634033,806.379456 799.108276,799.152649 812.546143,787.320068 
	C832.147888,770.059937 840.560425,747.630066 840.594116,722.020508 
	C840.737854,612.855774 840.659851,503.690765 840.648254,394.525879 
	C840.647217,384.458405 841.590454,385.367065 831.535767,385.366333 
	C618.539307,385.350922 405.542847,385.350037 192.546371,385.347534 
	C185.365646,385.347443 185.352692,385.353394 185.352478,392.459686 
	C185.349365,495.291351 185.318741,598.122986 185.397964,700.954590 
	C185.405899,711.251953 185.090683,721.532104 186.188217,731.863586 
	C188.855255,756.969666 200.106216,776.991577 220.195541,792.078674 
	C235.811523,803.806396 253.669785,808.652100 273.002014,808.655396 
	C316.501312,808.662842 360.000610,808.657898 404.499939,808.658752 
M311.499939,347.647949 
	C454.831573,347.650391 598.163208,347.652985 741.494812,347.655060 
	C772.661194,347.655518 803.827881,347.583496 834.993530,347.735016 
	C839.323975,347.756104 840.971558,346.502411 840.745972,342.060547 
	C840.315796,333.592773 840.895813,325.119324 839.791077,316.628143 
	C837.452759,298.655090 830.143860,282.978668 817.748169,270.051208 
	C798.463928,249.939728 773.985474,241.902802 746.609070,241.291138 
	C742.320496,241.195312 741.213074,242.895752 741.282898,246.883682 
	C741.460266,257.016693 741.312927,267.122589 739.458008,277.184021 
	C735.706787,297.531494 719.177673,314.039001 699.877014,316.234924 
	C679.147034,318.593445 659.535645,306.694458 651.356689,286.923218 
	C646.242676,274.560852 646.812012,261.540649 646.665344,248.596481 
	C646.583435,241.361237 646.639221,241.356918 639.592407,241.356735 
	C555.759949,241.354584 471.927429,241.353363 388.094940,241.352722 
	C380.218323,241.352661 380.208557,241.355240 380.203308,249.172318 
	C380.195068,261.471375 380.561310,273.792175 376.218231,285.636597 
	C369.249481,304.641754 348.944366,318.927307 330.860199,317.006744 
	C307.099945,314.483368 294.661835,302.838593 287.702179,279.569672 
	C284.565033,269.081085 285.552185,258.115692 285.742737,247.330933 
	C285.820801,242.914093 284.778992,241.073639 279.940948,241.254822 
	C272.443542,241.535645 264.991211,242.017776 257.649719,243.486603 
	C229.136353,249.191330 207.622940,264.475433 194.387985,290.614532 
	C186.270050,306.647522 185.113327,324.012695 185.223419,341.631714 
	C185.254074,346.537018 186.778656,347.772003 191.501526,347.751831 
	C231.167068,347.582336 270.833649,347.650696 311.499939,347.647949 
M344.711365,231.500000 
	C344.714020,217.338318 344.825073,203.175507 344.679565,189.015350 
	C344.589050,180.207138 335.583435,174.765137 327.610748,178.471024 
	C321.286804,181.410568 319.530212,187.018967 319.404266,193.272369 
	C319.209717,202.931747 319.348572,212.597900 319.349365,222.261169 
	C319.350616,237.089294 319.209045,251.919586 319.429871,266.744476 
	C319.516937,272.590271 321.420227,277.797272 327.046844,280.972443 
	C331.589478,283.535889 335.673553,282.728821 339.636871,279.910797 
	C343.744568,276.990112 344.601379,272.546814 344.652740,267.986969 
	C344.786011,256.159271 344.705261,244.329147 344.711365,231.500000 
M706.669189,260.418579 
	C706.666565,237.113495 706.645386,213.808395 706.677856,190.503372 
	C706.683960,186.118042 705.651489,182.229050 701.926758,179.555084 
	C697.605713,176.453003 692.897705,176.211945 688.242249,178.556564 
	C683.540771,180.924316 681.281189,184.829971 681.301392,190.272003 
	C681.394836,215.407822 681.369629,240.544281 681.295898,265.680237 
	C681.287415,268.569946 681.903076,271.323578 682.658081,273.998566 
	C684.095398,279.091125 689.671570,282.181854 695.732361,281.662842 
	C701.198853,281.194733 704.656616,277.795319 705.733887,272.285919 
	C706.441589,268.666382 706.793945,265.059265 706.669189,260.418579 
z"/>
<path fill="#000000" opacity="1.000000" stroke="none" 
	d="
M670.361572,689.000122 
	C670.362000,702.330872 670.352966,715.161560 670.365784,727.992310 
	C670.373840,736.068787 666.204102,740.963013 658.075378,741.204895 
	C646.588135,741.546570 635.081360,741.438660 623.587158,741.255249 
	C617.414368,741.156738 610.471375,735.320984 610.508057,727.044800 
	C610.780457,665.558533 610.659790,604.070435 610.615356,542.582947 
	C610.613831,540.512939 611.269287,538.285828 609.877625,536.284973 
	C607.516174,536.811462 607.410461,538.898071 606.885376,540.499207 
	C590.508850,590.436523 574.180298,640.389587 557.839966,690.338806 
	C553.806458,702.668274 549.838806,715.020142 545.692017,727.311462 
	C542.064636,738.063416 537.362732,741.353882 526.174927,741.367981 
	C517.343384,741.379089 508.511810,741.385315 499.680298,741.364502 
	C489.890320,741.341492 484.365204,737.478638 481.187653,727.813354 
	C473.918213,705.701416 466.855591,683.521545 459.684113,661.377319 
	C446.622864,621.046448 433.559814,580.716125 420.419769,540.410889 
	C419.814972,538.555847 420.002869,535.969910 417.252472,535.215759 
	C415.674591,537.000793 416.371887,539.094299 416.370636,540.987488 
	C416.329437,602.808228 416.338806,664.628967 416.335724,726.449707 
	C416.335236,736.637268 411.676453,741.307007 401.376373,741.347595 
	C390.878693,741.388916 380.380707,741.354126 369.882843,741.337158 
	C361.775696,741.324097 356.337524,736.247803 355.691742,728.060242 
	C355.574127,726.569214 355.651611,725.062195 355.651581,723.562561 
	C355.650574,634.080750 355.650116,544.598877 355.652191,455.117065 
	C355.652405,444.875610 358.329620,442.220001 368.343719,441.598297 
	C387.812500,440.389618 407.271088,440.360657 426.738251,441.499908 
	C427.395966,441.538391 428.069183,441.481934 428.723297,441.387451 
	C440.127533,439.740326 445.385864,442.382416 449.399689,453.601410 
	C457.575592,476.453979 465.278900,499.477234 473.034149,522.478271 
	C485.571228,559.661682 497.992798,596.884155 510.466370,634.089050 
	C510.730713,634.877441 511.025146,635.656250 511.322327,636.433105 
	C511.849640,637.811646 512.162170,639.553284 514.040588,639.554993 
	C515.942566,639.556641 516.247864,637.817444 516.712036,636.409790 
	C519.784790,627.092651 522.894165,617.787292 525.902283,608.449280 
	C539.310852,566.825256 552.709351,525.197937 566.063782,483.556549 
	C569.058350,474.218933 571.753235,464.784729 574.780701,455.458221 
	C578.132507,445.132660 584.417969,440.666199 595.229675,440.658051 
	C614.392456,440.643646 633.555176,440.663635 652.717957,440.675201 
	C654.050415,440.675995 655.389465,440.650299 656.714294,440.765167 
	C667.483704,441.698639 670.342529,444.791656 670.343933,455.549347 
	C670.354309,533.199585 670.356567,610.849792 670.361572,689.000122 
z"/>
</svg>