<svg version="1.1" id="Layer_1" xmlns="http://www.w3.org/2000/svg" xmlns:xlink="http://www.w3.org/1999/xlink" x="0px" y="0px"
	 width="100%" viewBox="0 0 1024 1024" enable-background="new 0 0 1024 1024" xml:space="preserve">
<path fill="#000000" opacity="1.000000" stroke="none" 
	d="
M863.322510,540.000122 
	C863.321899,597.158020 863.542114,653.817017 863.237610,710.473328 
	C863.053894,744.661194 850.996643,774.233887 826.032959,797.941772 
	C806.716064,816.286987 783.684082,826.837036 757.018555,829.513916 
	C750.520935,830.166199 744.067871,830.308228 737.587463,830.309143 
	C587.944031,830.330139 438.300537,830.292419 288.657074,830.336792 
	C259.324036,830.345520 232.276993,823.340332 209.112976,804.634644 
	C183.330902,783.814697 168.208725,757.020813 164.496979,723.860718 
	C163.788040,717.527283 163.696060,711.245789 163.694504,704.933350 
	C163.663864,581.119202 163.674393,457.305084 163.660172,333.490936 
	C163.657089,306.701080 171.085052,282.200958 187.137161,260.731201 
	C207.176605,233.928452 234.010834,218.550186 267.371246,214.495087 
	C273.872101,213.704880 280.322174,213.647629 286.797058,213.715347 
	C290.506378,213.754135 291.797882,212.370102 291.771790,208.736954 
	C291.710907,200.267548 291.369812,191.774887 293.439606,183.417877 
	C298.400635,163.386520 315.776398,150.132477 336.238037,149.509995 
	C357.274567,148.870041 377.901489,163.661392 381.888031,186.887512 
	C382.945435,193.048035 382.284454,199.510986 382.330475,205.835693 
	C382.387115,213.622086 382.350006,213.645523 390.021179,213.646133 
	C470.008789,213.652542 549.996399,213.651093 629.984009,213.651108 
	C633.483459,213.651108 636.985962,213.551056 640.481323,213.668533 
	C643.479614,213.769287 644.691223,212.464050 644.652832,209.504807 
	C644.574951,203.506958 644.650696,197.507095 644.664612,191.508072 
	C644.717041,168.863586 664.101379,150.405411 686.861267,149.443192 
	C710.704529,148.435181 729.581421,164.577927 733.800476,184.618744 
	C735.316589,191.820160 735.349915,199.144104 735.290222,206.472809 
	C735.231812,213.633148 735.305176,213.739914 742.321899,213.629211 
	C765.507080,213.263443 787.281799,218.459793 806.904846,230.946640 
	C837.037903,250.121384 855.204163,277.491394 861.385559,312.728943 
	C862.882935,321.264771 863.347290,329.870270 863.341553,338.535065 
	C863.296997,405.523376 863.320129,472.511719 863.322510,540.000122 
M272.500000,388.239471 
	C250.334442,388.240265 228.168869,388.241150 206.003311,388.241760 
	C199.367310,388.241974 199.352158,388.241699 199.351944,394.753021 
	C199.348511,501.745850 199.356155,608.738647 199.326401,715.731506 
	C199.325043,720.589722 199.936371,725.375366 201.012634,730.052795 
	C209.278931,765.978210 240.740219,794.514709 283.117493,794.568787 
	C437.106903,794.765137 591.096680,794.658020 745.086365,794.625305 
	C759.134583,794.622314 772.481323,791.456543 784.753113,784.495483 
	C810.722534,769.764709 827.134155,747.418701 827.251892,717.705505 
	C827.677063,610.395142 828.851868,503.071320 826.693909,395.761597 
	C826.543030,388.258148 826.551331,388.257843 818.963257,388.257599 
	C637.142151,388.251740 455.321075,388.245911 272.500000,388.239471 
M634.499939,352.658966 
	C695.993286,352.660156 757.486694,352.661530 818.980042,352.661499 
	C820.646484,352.661499 822.313965,352.605408 823.979126,352.648010 
	C826.456360,352.711334 827.636169,351.618042 827.649292,349.072266 
	C827.699829,339.252441 828.079224,329.399719 826.454163,319.674438 
	C819.237976,276.487000 782.862122,247.177185 739.437378,249.288879 
	C736.094849,249.451431 735.100281,250.724518 735.194580,253.829605 
	C735.341248,258.657776 735.342957,263.497375 735.201111,268.326111 
	C734.361206,296.919983 712.947510,314.255493 690.511780,314.708160 
	C669.019226,315.141815 650.287231,301.244415 645.594604,280.374420 
	C643.776001,272.286194 644.955078,264.117859 644.692444,255.990707 
	C644.476868,249.318985 644.634216,249.280289 638.148071,249.275681 
	C614.983826,249.259262 591.819641,249.266937 568.655396,249.266907 
	C508.661713,249.266815 448.667877,249.325592 388.674622,249.163025 
	C383.605927,249.149292 381.956604,250.563858 382.232269,255.654938 
	C382.618896,262.794739 383.018036,270.084015 382.041534,277.119141 
	C379.159943,297.879333 360.419861,314.560822 339.996765,315.315887 
	C318.093689,316.125671 298.958801,301.913727 293.664459,281.005280 
	C291.426880,272.168701 291.668671,263.179138 291.842346,254.206268 
	C291.913300,250.540253 290.666626,249.093628 286.930023,249.301193 
	C280.962860,249.632675 274.999603,249.195099 269.017609,250.253418 
	C238.537430,255.645905 217.217529,272.533203 205.281189,301.004425 
	C199.711655,314.289215 199.026352,328.438354 199.327362,342.666046 
	C199.567093,353.996948 197.932617,352.636627 209.044464,352.638855 
	C350.529602,352.667297 492.014740,352.658051 634.499939,352.658966 
M693.244934,184.988663 
	C684.483459,183.027451 679.430847,186.441635 679.394470,194.772308 
	C679.287109,219.421768 679.305847,244.072189 679.388550,268.721832 
	C679.412292,275.810364 683.196350,279.676880 689.554077,279.651245 
	C695.921814,279.625580 699.585571,275.815613 699.610535,268.627533 
	C699.694641,244.477554 699.683899,220.326965 699.602783,196.176941 
	C699.587769,191.707275 698.490234,187.546738 693.244934,184.988663 
M347.649231,251.499878 
	C347.649658,238.337280 347.653168,225.174683 347.649078,212.012085 
	C347.647278,206.180664 347.823395,200.340668 347.564606,194.520309 
	C347.315948,188.927048 342.792603,184.531052 337.705414,184.413620 
	C332.549530,184.294601 328.960571,187.840210 328.161621,193.861038 
	C327.877350,196.003342 327.399078,198.149399 327.393707,200.294708 
	C327.336060,223.287430 327.320160,246.280426 327.377380,269.273132 
	C327.392670,275.415192 331.800903,280.380798 337.093201,280.584564 
	C342.651062,280.798584 347.452515,275.853729 347.610657,269.493683 
	C347.751434,263.832245 347.645844,258.164612 347.649231,251.499878 
z"/>
<path fill="#000000" opacity="1.000000" stroke="none" 
	d="
M645.407776,624.208374 
	C637.714355,657.273560 630.016602,689.911499 622.532654,722.598267 
	C621.860168,725.535583 620.749451,726.404541 617.957764,726.395447 
	C597.126099,726.327576 576.293396,726.272827 555.462708,726.431824 
	C551.456726,726.462341 550.400085,724.293213 549.608337,721.127686 
	C544.370911,700.187622 539.080933,679.260620 533.787537,658.334595 
	C525.278320,624.695190 516.781677,591.052612 508.184662,557.435608 
	C507.440521,554.525696 507.686218,551.102966 504.992920,548.926453 
	C502.330292,549.393127 502.563110,551.485291 502.130951,553.179504 
	C489.898468,601.136780 477.658386,649.092041 465.421265,697.048096 
	C463.369751,705.087769 461.168732,713.093994 459.345551,721.185242 
	C458.449646,725.161316 456.537109,726.485962 452.439117,726.445984 
	C432.275757,726.248840 412.108734,726.275269 391.944611,726.430359 
	C388.091827,726.459961 386.423096,725.184631 385.533203,721.373047 
	C371.722839,662.221802 357.760895,603.106018 343.859467,543.975952 
	C336.795746,513.930359 329.780273,483.873444 322.754974,453.818848 
	C322.460876,452.560822 322.288940,451.274231 322.056213,449.979279 
	C324.817383,448.286316 327.463898,449.728607 330.021423,449.703156 
	C348.350342,449.520416 366.681824,449.588837 385.010437,449.388367 
	C388.034363,449.355286 388.926941,450.377014 389.463226,453.242279 
	C395.656250,486.329102 401.992279,519.389282 408.318176,552.451172 
	C413.334930,578.671021 418.381348,604.885193 423.450043,631.095093 
	C423.758392,632.689575 424.102417,634.348022 425.553131,635.763916 
	C427.668396,633.777466 428.072723,631.140991 428.718414,628.624207 
	C443.237762,572.026794 456.595062,515.150330 469.649994,458.201141 
	C471.617126,449.619904 471.632935,449.637299 480.413116,449.643005 
	C497.578644,449.654114 514.745300,449.756317 531.908813,449.570312 
	C535.992737,449.526062 537.676636,450.839844 538.608887,454.920410 
	C549.733154,503.613129 561.068787,552.257568 572.319397,600.921448 
	C574.748718,611.429443 577.036072,621.970154 579.455383,632.480469 
	C579.773071,633.860657 580.488647,635.149231 581.133667,636.765198 
	C584.525085,634.514526 583.998047,631.145874 584.510071,628.479126 
	C592.264465,588.096252 599.855408,547.681946 607.468384,507.271942 
	C610.844788,489.349762 614.357483,471.450104 617.411865,453.472839 
	C618.114990,449.334351 620.049622,448.597290 623.445007,448.907104 
	C640.742554,450.485352 658.080872,449.219055 675.393188,449.679474 
	C678.821350,449.770660 682.258118,447.942993 686.308716,449.958557 
	C672.704163,507.855621 659.082642,565.824890 645.407776,624.208374 
z"/>
</svg>